<svg width="1086" height="528" viewBox="0 0 1086 528" fill="none" xmlns="http://www.w3.org/2000/svg">
<rect width="1086" height="528" fill="white"/>
<path d="M283.3 323V253H315.1C322.7 253 329.4 254.467 335.2 257.4C341 260.267 345.533 264.3 348.8 269.5C352.067 274.7 353.7 280.867 353.7 288C353.7 295.067 352.067 301.233 348.8 306.5C345.533 311.7 341 315.767 335.2 318.7C329.4 321.567 322.7 323 315.1 323H283.3ZM299.5 309.7H314.3C318.967 309.7 323 308.833 326.4 307.1C329.867 305.3 332.533 302.767 334.4 299.5C336.333 296.233 337.3 292.4 337.3 288C337.3 283.533 336.333 279.7 334.4 276.5C332.533 273.233 329.867 270.733 326.4 269C323 267.2 318.967 266.3 314.3 266.3H299.5V309.7ZM363.741 323L394.941 253H410.941L442.241 323H425.241L399.641 261.2H406.041L380.341 323H363.741ZM379.341 308L383.641 295.7H419.641L424.041 308H379.341ZM468.488 323V266.2H446.088V253H507.088V266.2H484.688V323H468.488ZM511.088 323L542.288 253H558.288L589.588 323H572.588L546.988 261.2H553.388L527.688 323H511.088ZM526.688 308L530.988 295.7H566.988L571.388 308H526.688ZM627.851 324.2C622.251 324.2 616.884 323.467 611.751 322C606.617 320.467 602.484 318.5 599.351 316.1L604.851 303.9C607.851 306.033 611.384 307.8 615.451 309.2C619.584 310.533 623.751 311.2 627.951 311.2C631.151 311.2 633.717 310.9 635.651 310.3C637.651 309.633 639.117 308.733 640.051 307.6C640.984 306.467 641.451 305.167 641.451 303.7C641.451 301.833 640.717 300.367 639.251 299.3C637.784 298.167 635.851 297.267 633.451 296.6C631.051 295.867 628.384 295.2 625.451 294.6C622.584 293.933 619.684 293.133 616.751 292.2C613.884 291.267 611.251 290.067 608.851 288.6C606.451 287.133 604.484 285.2 602.951 282.8C601.484 280.4 600.751 277.333 600.751 273.6C600.751 269.6 601.817 265.967 603.951 262.7C606.151 259.367 609.417 256.733 613.751 254.8C618.151 252.8 623.651 251.8 630.251 251.8C634.651 251.8 638.984 252.333 643.251 253.4C647.517 254.4 651.284 255.933 654.551 258L649.551 270.3C646.284 268.433 643.017 267.067 639.751 266.2C636.484 265.267 633.284 264.8 630.151 264.8C627.017 264.8 624.451 265.167 622.451 265.9C620.451 266.633 619.017 267.6 618.151 268.8C617.284 269.933 616.851 271.267 616.851 272.8C616.851 274.6 617.584 276.067 619.051 277.2C620.517 278.267 622.451 279.133 624.851 279.8C627.251 280.467 629.884 281.133 632.751 281.8C635.684 282.467 638.584 283.233 641.451 284.1C644.384 284.967 647.051 286.133 649.451 287.6C651.851 289.067 653.784 291 655.251 293.4C656.784 295.8 657.551 298.833 657.551 302.5C657.551 306.433 656.451 310.033 654.251 313.3C652.051 316.567 648.751 319.2 644.351 321.2C640.017 323.2 634.517 324.2 627.851 324.2ZM676.62 323V253H690.02L731.32 303.4H724.82V253H740.82V323H727.52L686.12 272.6H692.62V323H676.62ZM756.182 323L787.382 253H803.382L834.682 323H817.682L792.082 261.2H798.482L772.782 323H756.182ZM771.782 308L776.082 295.7H812.082L816.482 308H771.782ZM849.945 323V253H884.145C892.945 253 899.545 254.667 903.945 258C908.411 261.333 910.645 265.733 910.645 271.2C910.645 274.867 909.745 278.067 907.945 280.8C906.145 283.467 903.678 285.533 900.545 287C897.411 288.467 893.811 289.2 889.745 289.2L891.645 285.1C896.045 285.1 899.945 285.833 903.345 287.3C906.745 288.7 909.378 290.8 911.245 293.6C913.178 296.4 914.145 299.833 914.145 303.9C914.145 309.9 911.778 314.6 907.045 318C902.311 321.333 895.345 323 886.145 323H849.945ZM866.045 310.8H884.945C889.145 310.8 892.311 310.133 894.445 308.8C896.645 307.4 897.745 305.2 897.745 302.2C897.745 299.267 896.645 297.1 894.445 295.7C892.311 294.233 889.145 293.5 884.945 293.5H864.845V281.7H882.145C886.078 281.7 889.078 281.033 891.145 279.7C893.278 278.3 894.345 276.2 894.345 273.4C894.345 270.667 893.278 268.633 891.145 267.3C889.078 265.9 886.078 265.2 882.145 265.2H866.045V310.8Z" fill="black"/>
<path d="M179 299C179 301.209 180.791 303 183 303H245C247.209 303 249 304.791 249 307V319C249 321.209 247.209 323 245 323H163C160.791 323 159 321.209 159 319V217C159 214.791 160.791 213 163 213H175C177.209 213 179 214.791 179 217V299Z" fill="#1177FE"/>
<path d="M349.34 129C351.549 129 353.34 130.791 353.34 133V215C353.34 217.209 351.549 219 349.34 219H337.34C335.131 219 333.34 217.209 333.34 215V153C333.34 150.791 331.549 149 329.34 149H247C244.791 149 243 147.209 243 145V133C243 130.791 244.791 129 247 129H349.34Z" fill="#21A9FF"/>
<rect x="159" y="129" width="28" height="28" rx="4" fill="#21A9FF"/>
<rect x="201" y="139" width="24" height="24" rx="4" fill="#1177FE"/>
<rect x="169" y="171" width="24" height="24" rx="4" fill="#1177FE"/>
<rect x="205" y="175" width="22" height="22" rx="4" fill="#21A9FF"/>
</svg>
